<svg width="24" height="24" viewBox="0 0 24 24" fill="none" xmlns="http://www.w3.org/2000/svg">
<path d="M1.80042 8.28C2.08536 8.42147 2.41481 8.44406 2.7164 8.34281C3.01798 8.24155 3.26703 8.02474 3.4088 7.74C4.1685 6.20616 5.32457 4.90326 6.75725 3.96627C8.18993 3.02928 9.84713 2.49228 11.5572 2.41088C13.2673 2.32948 14.968 2.70664 16.4832 3.5033C17.9985 4.29996 19.2731 5.48716 20.1752 6.9419C21.0772 8.39665 21.5738 10.066 21.6135 11.7772C21.6533 13.4883 21.2347 15.179 20.4012 16.674C19.5676 18.169 18.3495 19.4141 16.8728 20.2802C15.3962 21.1463 13.7148 21.602 12.0028 21.6C10.2131 21.6077 8.45737 21.1108 6.93726 20.1663C5.41715 19.2218 4.19421 17.8679 3.4088 16.26C3.26555 15.9736 3.01435 15.7558 2.71047 15.6545C2.40659 15.5532 2.07492 15.5768 1.78842 15.72C1.50192 15.8632 1.28405 16.1143 1.18276 16.4182C1.08147 16.722 1.10504 17.0536 1.24829 17.34C2.45265 19.7631 4.44076 21.7082 6.88995 22.8595C9.33914 24.0108 12.1056 24.3008 14.7404 23.6824C17.3752 23.064 19.7236 21.5735 21.4045 19.4528C23.0853 17.3321 24 14.7058 24 12C24 9.29423 23.0853 6.66786 21.4045 4.54719C19.7236 2.42652 17.3752 0.936025 14.7404 0.317622C12.1056 -0.30078 9.33914 -0.0107912 6.88995 1.14052C4.44076 2.29184 2.45265 4.2369 1.24829 6.66C1.17677 6.80236 1.1343 6.95753 1.12339 7.11646C1.11247 7.2754 1.13332 7.43491 1.18471 7.58571C1.2361 7.7365 1.31702 7.87555 1.42273 7.99476C1.52844 8.11396 1.65683 8.21093 1.80042 8.28ZM1.20028 13.2L12.711 13.2L9.95033 15.948C9.83842 16.0599 9.74965 16.1927 9.68908 16.3389C9.62851 16.4851 9.59734 16.6418 9.59734 16.8C9.59734 16.9582 9.62851 17.1149 9.68908 17.2611C9.74965 17.4073 9.83842 17.5401 9.95033 17.652C10.0622 17.7639 10.1951 17.8526 10.3413 17.9132C10.4875 17.9737 10.6443 18.0049 10.8025 18.0049C10.9608 18.0049 11.1175 17.9737 11.2637 17.9132C11.41 17.8526 11.5428 17.7639 11.6547 17.652L16.4559 12.852C16.5651 12.7379 16.6508 12.6033 16.7079 12.456C16.828 12.1638 16.828 11.8362 16.7079 11.544C16.6508 11.3967 16.5651 11.2621 16.4559 11.148L11.6547 6.34801C11.5432 6.23553 11.4104 6.14626 11.2641 6.08534C11.1179 6.02441 10.961 5.99305 10.8025 5.99305C10.6441 5.99305 10.4872 6.02441 10.3409 6.08534C10.1947 6.14626 10.0619 6.23553 9.95034 6.34801C9.83783 6.45956 9.74854 6.59228 9.6876 6.73851C9.62667 6.88474 9.59529 7.04159 9.59529 7.20001C9.59529 7.35842 9.62667 7.51527 9.6876 7.6615C9.74854 7.80773 9.83783 7.94045 9.95033 8.052L12.711 10.8L1.20028 10.8C0.881946 10.8 0.576648 10.9264 0.351552 11.1515C0.126455 11.3765 -2.7378e-06 11.6817 -2.76562e-06 12C-2.79345e-06 12.3183 0.126454 12.6235 0.351552 12.8485C0.576648 13.0736 0.881946 13.2 1.20028 13.2Z" fill="white"/>
</svg>
